<svg xmlns="http://www.w3.org/2000/svg" viewBox="0 0 800 900">
  <path fill="#FF6B00" d="
    M370 52 L385 48 L398 42 L415 38 L430 35 L445 40 L458 36 L470 32 L485 35
    L500 30 L510 35 L525 32 L538 28 L550 32 L558 40 L565 36 L575 40 L582 48
    L590 45 L600 50 L608 58 L615 55 L622 62 L618 72 L625 78 L620 88 L628 95
    L632 108 L625 118 L630 128 L622 138 L618 150 L625 158 L620 168 L612 175
    L618 185 L610 195 L605 208 L612 218 L608 230 L600 238 L605 250 L598 260
    L592 272 L600 282 L595 295 L588 305 L592 318 L585 328 L578 340 L582 352
    L575 362 L568 375 L572 388 L565 398 L558 412 L550 422 L542 435 L535 445
    L528 458 L520 468 L512 480 L505 492 L498 505 L492 518 L485 530 L478 542
    L472 555 L465 568 L458 578 L452 590 L445 600 L440 612 L435 625 L428 635
    L422 648 L418 658 L412 668 L405 678 L400 688 L395 698 L388 708 L382 718
    L375 725 L368 732 L362 738 L355 742 L348 735 L342 728 L335 720 L330 710
    L322 702 L315 695 L308 688 L300 682 L295 672 L288 665 L280 658 L275 648
    L268 640 L262 630 L258 618 L252 608 L248 595 L245 582 L240 570 L235 558
    L232 545 L228 532 L225 520 L222 508 L218 498 L215 485 L212 472 L210 460
    L208 448 L205 435 L202 422 L200 410 L198 398 L195 385 L198 372 L202 360
    L198 348 L205 338 L200 325 L208 315 L205 302 L210 290 L208 278 L215 268
    L212 255 L218 245 L222 232 L218 220 L225 208 L228 195 L222 185 L228 172
    L235 162 L230 150 L238 140 L242 128 L248 118 L255 108 L262 98 L268 88
    L275 78 L282 70 L290 62 L298 55 L308 50 L318 48 L330 45 L342 48 L355 50 Z
    M595 195 L602 188 L610 192 L618 188 L625 195 L630 205 L635 215 L638 228
    L642 240 L640 252 L635 262 L628 270 L620 275 L612 280 L605 272 L600 260
    L595 248 L592 235 L590 222 L592 208 Z
  "/>
</svg>
